<svg xmlns="http://www.w3.org/2000/svg" width="200mm" height="55mm" viewBox="0 0 566.93 155.91"><defs><style>.cls-1{fill:#4b91ce;}.cls-2{fill:none;stroke:#fff;stroke-miterlimit:10;stroke-width:3px;}</style></defs><title>Artboard 1</title><g id="Layer_2" data-name="Layer 2"><path class="cls-1" d="M501.72,33.37H455.79L392.45,94.56h42.18l15.12-17.13,44.63.28,11.08,16.85h40.17ZM460.83,64l16-17.78L487.76,64Z"/><path class="cls-1" d="M351.7,58l51.69.72-3,35.71s-109,13.82-119.64-21.17S333.7,22.57,405.26,39v9.35s-82.41-12-88.26,16.44C314.56,90.1,372.15,81,372.15,81l1-9.94-22-.72Z"/><path class="cls-1" d="M209.46,31.93c-39.78,0-73.86,12.74-73.86,33.69,0,18.79,33.32,31.75,73.1,31.75s72-15.23,72-34C280.72,41.65,249.23,31.93,209.46,31.93Zm0,50.75c-21.26,0-38.49-8.53-38.49-19.06s19.56-19,40.82-19S248,53.1,248,63.62,230.77,82.68,209.51,82.68Z"/><polygon class="cls-1" points="20.98 95.03 31.29 33.01 69.95 33.01 67.14 56.98 109.68 33.01 155.9 33.01 105.8 61.52 151.9 95.03 103.31 95.03 65.19 63.57 61.19 95.03 20.98 95.03"/><path class="cls-1" d="M413.24,126.92c-2,6.1-6.33,9.54-13.37,9.54s-11-4.44-11-11.77c0-7.6,4.37-18.23,15.67-18.23,6.54,0,10.55,3.52,10.74,9.66h-6.22c-.12-2.43-1.16-4.88-5.18-4.88-5.75,0-8.63,7.4-8.63,13.4,0,4,1.3,7,5.27,7,3.41,0,5.2-2,6.43-4.77Z"/><path class="cls-1" d="M437.5,123.3H424.38l-1.66,7.86h14.93l-1.73,4.89h-20.1L422,106.89h19.59l-1,4.88H426.83l-1.4,6.64h13.12Z"/><path class="cls-1" d="M440.82,136.05,447,106.89h7.68c2.05,6.8,5.63,18.56,6.19,22.27H461c.43-3.34,1.55-8.51,2.57-13.3l1.9-9H471l-6.18,29.16h-7.29c-1.78-6.14-5.77-20.05-6.28-23.33h-.08c-.55,3.67-1.68,8.9-2.79,14.12l-1.94,9.21Z"/><path class="cls-1" d="M482.29,111.77h-8.51l1.05-4.88h23l-1.06,4.88h-8.49l-5.12,24.28h-6Z"/><path class="cls-1" d="M517.56,123.3H504.43l-1.65,7.86h14.93L516,136.05h-20.1l6.18-29.16h19.59l-1,4.88H506.89l-1.4,6.64h13.12Z"/><path class="cls-1" d="M529.34,124.17l-2.51,11.88h-5.92l6.19-29.16h11.1c5.57,0,8.89,2.83,8.89,7.63a7.53,7.53,0,0,1-6,7.61c1.17.57,3.44,2,2.42,7-.72,3.41-1.2,5.6-1,7h-5.67c-.17-1.27.07-3.37.84-7,.68-3.19.11-4.9-3.09-4.9Zm1-4.78h4.9c3.4,0,5.78-1.2,5.78-4.28,0-2.22-1.24-3.45-4.22-3.45H532Z"/><line class="cls-2" x1="31.98" y1="112.18" x2="381.83" y2="112.18"/><line class="cls-2" x1="109.63" y1="121.82" x2="375.91" y2="121.82"/><line class="cls-2" x1="206.47" y1="131.25" x2="368.17" y2="131.25"/></g></svg>
